<svg width="48" height="47" viewBox="0 0 48 47" fill="none" xmlns="http://www.w3.org/2000/svg">
<path d="M1.88311 40.7086L37.1747 7.83881L14.0204 7.00918C13.6111 6.99906 13.2079 6.90786 12.834 6.74084C12.4602 6.57383 12.1231 6.33432 11.8424 6.0362C11.5616 5.73807 11.3428 5.38725 11.1985 5.00404C11.0542 4.62083 10.9873 4.21285 11.0018 3.80371C11.0162 3.39459 11.1117 2.99243 11.2826 2.62054C11.4536 2.24866 11.6966 1.91442 11.9977 1.63719C12.2988 1.35996 12.6519 1.14526 13.0366 1.00549C13.4213 0.865723 13.8299 0.803678 14.2389 0.822948L44.8605 1.92014C45.6807 1.94965 46.4558 2.30373 47.0154 2.9045C47.5749 3.50528 47.8731 4.30356 47.8443 5.1238L46.7655 35.7461C46.7518 36.1525 46.6579 36.5521 46.4892 36.922C46.3205 37.2919 46.0802 37.6248 45.7824 37.9015C45.3345 38.3184 44.773 38.5931 44.1689 38.6909C43.5647 38.7887 42.945 38.7051 42.3882 38.4507C41.8313 38.1964 41.3622 37.7827 41.0403 37.2619C40.7183 36.7411 40.5579 36.1367 40.5794 35.525L41.3951 12.3702L6.10352 45.24C5.50299 45.7993 4.70472 46.097 3.88434 46.0676C3.06396 46.0382 2.28866 45.6842 1.729 45.0833C1.16934 44.4824 0.871164 43.6839 0.900064 42.8635C0.928967 42.0431 1.28258 41.268 1.88311 40.7086Z" fill="white"/>
</svg>
