<svg width="26" height="22" viewBox="0 0 26 22" fill="none" xmlns="http://www.w3.org/2000/svg">
<g clip-path="url(#clip0_7_1635)">
<path d="M0 1.57143C0 1.15466 0.152182 0.754961 0.423068 0.460261C0.693954 0.165561 1.06135 0 1.44444 0H24.5556C24.9386 0 25.306 0.165561 25.5769 0.460261C25.8478 0.754961 26 1.15466 26 1.57143C26 1.9882 25.8478 2.3879 25.5769 2.6826C25.306 2.9773 24.9386 3.14286 24.5556 3.14286H1.44444C1.06135 3.14286 0.693954 2.9773 0.423068 2.6826C0.152182 2.3879 0 1.9882 0 1.57143ZM0 11C0 10.5832 0.152182 10.1835 0.423068 9.88883C0.693954 9.59413 1.06135 9.42857 1.44444 9.42857H24.5556C24.9386 9.42857 25.306 9.59413 25.5769 9.88883C25.8478 10.1835 26 10.5832 26 11C26 11.4168 25.8478 11.8165 25.5769 12.1112C25.306 12.4059 24.9386 12.5714 24.5556 12.5714H1.44444C1.06135 12.5714 0.693954 12.4059 0.423068 12.1112C0.152182 11.8165 0 11.4168 0 11ZM1.44444 18.8571C1.06135 18.8571 0.693954 19.0227 0.423068 19.3174C0.152182 19.6121 0 20.0118 0 20.4286C0 20.8453 0.152182 21.245 0.423068 21.5397C0.693954 21.8344 1.06135 22 1.44444 22H24.5556C24.9386 22 25.306 21.8344 25.5769 21.5397C25.8478 21.245 26 20.8453 26 20.4286C26 20.0118 25.8478 19.6121 25.5769 19.3174C25.306 19.0227 24.9386 18.8571 24.5556 18.8571H1.44444Z" fill="black"/>
</g>
<defs>
<clipPath id="clip0_7_1635">
<rect width="26" height="22" fill="white"/>
</clipPath>
</defs>
</svg>
