<svg width="26" height="26" viewBox="0 0 26 26" fill="none" xmlns="http://www.w3.org/2000/svg">
<g clip-path="url(#clip0_32_3)">
<path d="M15.2867 13L25.5043 2.79865C25.8097 2.49325 25.9812 2.07904 25.9812 1.64715C25.9812 1.21525 25.8097 0.801041 25.5043 0.495644C25.1989 0.190247 24.7847 0.0186768 24.3528 0.0186768C23.9209 0.0186768 23.5067 0.190247 23.2013 0.495644L12.9999 10.7132L2.79861 0.495644C2.49321 0.190247 2.079 0.0186771 1.64711 0.0186771C1.21521 0.0186771 0.801001 0.190247 0.495604 0.495644C0.190207 0.801041 0.0186373 1.21525 0.0186373 1.64715C0.0186373 2.07904 0.190207 2.49325 0.495604 2.79865L10.7131 13L0.495604 23.2013C0.343593 23.3521 0.222938 23.5314 0.1406 23.7291C0.0582614 23.9267 0.0158691 24.1387 0.0158691 24.3528C0.0158691 24.5669 0.0582614 24.7789 0.1406 24.9765C0.222938 25.1742 0.343593 25.3535 0.495604 25.5043C0.646375 25.6563 0.825751 25.777 1.02339 25.8593C1.22102 25.9416 1.433 25.984 1.64711 25.984C1.86121 25.984 2.07319 25.9416 2.27082 25.8593C2.46846 25.777 2.64784 25.6563 2.79861 25.5043L12.9999 15.2868L23.2013 25.5043C23.352 25.6563 23.5314 25.777 23.729 25.8593C23.9267 25.9416 24.1387 25.984 24.3528 25.984C24.5669 25.984 24.7788 25.9416 24.9765 25.8593C25.1741 25.777 25.3535 25.6563 25.5043 25.5043C25.6563 25.3535 25.7769 25.1742 25.8593 24.9765C25.9416 24.7789 25.984 24.5669 25.984 24.3528C25.984 24.1387 25.9416 23.9267 25.8593 23.7291C25.7769 23.5314 25.6563 23.3521 25.5043 23.2013L15.2867 13Z" fill="black"/>
</g>
<defs>
<clipPath id="clip0_32_3">
<rect width="26" height="26" fill="white"/>
</clipPath>
</defs>
</svg>
