<svg width="17" height="23" viewBox="0 0 17 23" fill="none" xmlns="http://www.w3.org/2000/svg">
<g clip-path="url(#clip0_5_300)">
<path d="M17.0041 8.30974C16.8576 3.93484 13.3562 0.300129 9.03739 0.0313239C4.09772 -0.280334 -0.0090332 3.69331 -0.0090332 8.60971C-0.0090332 10.9705 0.920288 13.1716 2.60541 14.8078C4.81283 16.9486 6.62609 19.7038 7.71116 22.4403C7.99855 23.1651 9.01795 23.1682 9.30982 22.4452C10.4165 19.7037 12.2277 16.9304 14.4244 14.7766C16.1442 13.0937 17.0851 10.7329 17.0041 8.30974ZM8.50139 12.7665C6.234 12.7665 4.38693 10.9004 4.38693 8.60971C4.38693 6.31903 6.234 4.45687 8.50139 4.45687C10.7688 4.45687 12.612 6.31903 12.612 8.60971C12.612 10.9004 10.7688 12.7665 8.50139 12.7665Z" fill="white"/>
<path d="M8.50123 10.9497C7.22359 10.9497 6.18433 9.89969 6.18433 8.60904C6.18433 7.32014 7.22355 6.27148 8.50123 6.27148C9.77702 6.27148 10.8147 7.32014 10.8147 8.60904C10.8147 9.89965 9.77702 10.9497 8.50123 10.9497Z" fill="white"/>
</g>
<defs>
<clipPath id="clip0_5_300">
<rect width="17" height="23" fill="white"/>
</clipPath>
</defs>
</svg>
