<svg width="60" height="36" viewBox="0 0 60 36" fill="none" xmlns="http://www.w3.org/2000/svg">
<path d="M28.5893 35.9993H21.7456C21.5679 35.9993 21.3932 35.9533 21.2385 35.8657C21.0838 35.7781 20.9545 35.6519 20.8632 35.4994L0.0875112 0.939438C0.0315305 0.845843 0.00135081 0.739085 4.42996e-05 0.630032C-0.00126221 0.520979 0.0263516 0.413526 0.080074 0.318617C0.133796 0.223708 0.211709 0.144731 0.305877 0.0897279C0.400046 0.0347251 0.507106 0.00566017 0.616159 0.00549419H7.46184C7.63939 0.00524368 7.81398 0.050964 7.96862 0.138203C8.12326 0.225441 8.25268 0.351227 8.34429 0.503322L29.12 35.0633C29.1766 35.1571 29.2072 35.2643 29.2087 35.3738C29.2101 35.4833 29.1824 35.5913 29.1284 35.6866C29.0744 35.7819 28.996 35.8611 28.9012 35.916C28.8065 35.971 28.6988 35.9997 28.5893 35.9993V35.9993Z" fill="url(#paint0_linear_1_49)"/>
<path d="M28.5893 35.9993H21.7456C21.5679 35.9993 21.3932 35.9533 21.2385 35.8657C21.0838 35.7781 20.9545 35.6519 20.8632 35.4994L0.0875112 0.939438C0.0315305 0.845843 0.00135081 0.739085 4.42996e-05 0.630032C-0.00126221 0.520979 0.0263516 0.413526 0.080074 0.318617C0.133796 0.223708 0.211709 0.144731 0.305877 0.0897279C0.400046 0.0347251 0.507106 0.00566017 0.616159 0.00549419H7.46184C7.63939 0.00524368 7.81398 0.050964 7.96862 0.138203C8.12326 0.225441 8.25268 0.351227 8.34429 0.503322L29.12 35.0633C29.1766 35.1571 29.2072 35.2643 29.2087 35.3738C29.2101 35.4833 29.1824 35.5913 29.1284 35.6866C29.0744 35.7819 28.996 35.8611 28.9012 35.916C28.8065 35.971 28.6988 35.9997 28.5893 35.9993V35.9993Z" fill="black"/>
<path d="M59.9173 0.93603L47.2524 21.997L43.5313 28.2034C43.4764 28.2946 43.3989 28.37 43.3062 28.4224C43.2136 28.4747 43.109 28.5022 43.0026 28.5022C42.8962 28.5022 42.7916 28.4747 42.699 28.4224C42.6064 28.37 42.5289 28.2946 42.474 28.2034L39.1828 22.7376C39.0482 22.5137 38.9772 22.2573 38.9772 21.996C38.9772 21.7347 39.0482 21.4784 39.1828 21.2544L42.9944 14.9081L51.6523 0.508144C51.7439 0.356048 51.8733 0.23026 52.028 0.143021C52.1826 0.0557827 52.3572 0.0100655 52.5348 0.010316H59.3887C59.4965 0.0113226 59.6022 0.0405697 59.6952 0.0951461C59.7882 0.149722 59.8653 0.227721 59.9188 0.32137C59.9723 0.415019 60.0003 0.521051 60 0.628896C59.9997 0.736741 59.9712 0.842636 59.9173 0.93603V0.93603Z" fill="url(#paint1_linear_1_49)"/>
<path d="M59.9173 0.93603L47.2524 21.997L43.5313 28.2034C43.4764 28.2946 43.3989 28.37 43.3062 28.4224C43.2136 28.4747 43.109 28.5022 43.0026 28.5022C42.8962 28.5022 42.7916 28.4747 42.699 28.4224C42.6064 28.37 42.5289 28.2946 42.474 28.2034L39.1828 22.7376C39.0482 22.5137 38.9772 22.2573 38.9772 21.996C38.9772 21.7347 39.0482 21.4784 39.1828 21.2544L42.9944 14.9081L51.6523 0.508144C51.7439 0.356048 51.8733 0.23026 52.028 0.143021C52.1826 0.0557827 52.3572 0.0100655 52.5348 0.010316H59.3887C59.4965 0.0113226 59.6022 0.0405697 59.6952 0.0951461C59.7882 0.149722 59.8653 0.227721 59.9188 0.32137C59.9723 0.415019 60.0003 0.521051 60 0.628896C59.9997 0.736741 59.9712 0.842636 59.9173 0.93603V0.93603Z" fill="black"/>
<path d="M54.4663 35.9363H47.6206C47.4837 35.936 47.3482 35.9083 47.2221 35.855C47.096 35.8017 46.9818 35.7237 46.8863 35.6256L44.7491 32.0668C44.6145 31.8428 44.5434 31.5864 44.5434 31.3252C44.5434 31.0639 44.6145 30.8075 44.7491 30.5836L48.0156 25.1445C48.0705 25.0533 48.148 24.9779 48.2406 24.9256C48.3332 24.8732 48.4378 24.8457 48.5442 24.8457C48.6506 24.8457 48.7552 24.8732 48.8478 24.9256C48.9405 24.9779 49.018 25.0533 49.0729 25.1445L52.8063 31.3529L54.9991 35.0002C55.0558 35.0942 55.0864 35.2015 55.0878 35.3113C55.0892 35.421 55.0613 35.5291 55.007 35.6244C54.9528 35.7198 54.874 35.7989 54.779 35.8537C54.684 35.9086 54.576 35.937 54.4663 35.9363Z" fill="url(#paint2_linear_1_49)"/>
<path d="M54.4663 35.9363H47.6206C47.4837 35.936 47.3482 35.9083 47.2221 35.855C47.096 35.8017 46.9818 35.7237 46.8863 35.6256L44.7491 32.0668C44.6145 31.8428 44.5434 31.5864 44.5434 31.3252C44.5434 31.0639 44.6145 30.8075 44.7491 30.5836L48.0156 25.1445C48.0705 25.0533 48.148 24.9779 48.2406 24.9256C48.3332 24.8732 48.4378 24.8457 48.5442 24.8457C48.6506 24.8457 48.7552 24.8732 48.8478 24.9256C48.9405 24.9779 49.018 25.0533 49.0729 25.1445L52.8063 31.3529L54.9991 35.0002C55.0558 35.0942 55.0864 35.2015 55.0878 35.3113C55.0892 35.421 55.0613 35.5291 55.007 35.6244C54.9528 35.7198 54.874 35.7989 54.779 35.8537C54.684 35.9086 54.576 35.937 54.4663 35.9363Z" fill="black"/>
<path d="M41.9227 36H35.077C34.8993 36 34.7246 35.954 34.5699 35.8663C34.4152 35.7787 34.2859 35.6525 34.1946 35.5001L26.8223 23.2313L25.3824 20.847L25.3392 20.7792L23.9384 18.4484C23.8824 18.3548 23.8522 18.2481 23.8509 18.139C23.8496 18.03 23.8772 17.9225 23.9309 17.8276C23.9847 17.7327 24.0626 17.6537 24.1568 17.5987C24.2509 17.5437 24.358 17.5146 24.467 17.5145H28.8649C30.3942 17.5135 31.8615 16.9099 32.9489 15.8344C34.0362 14.7589 34.656 13.2982 34.6739 11.7689C34.7088 8.53917 31.973 5.89368 28.7415 5.89368H16.9899C16.8123 5.89393 16.6377 5.84821 16.4831 5.76097C16.3284 5.67374 16.199 5.54795 16.1074 5.39585L13.4333 0.933914C13.3773 0.840319 13.3471 0.733557 13.3458 0.624504C13.3445 0.515451 13.3721 0.408001 13.4259 0.313092C13.4796 0.218183 13.5575 0.139206 13.6517 0.0842032C13.7458 0.0292004 13.8529 0.000135467 13.962 -3.05176e-05H28.7106C35.1326 -3.05176e-05 40.4869 5.09962 40.5857 11.52C40.6192 13.5354 40.1308 15.5253 39.1681 17.2962C38.2054 19.0672 36.801 20.559 35.0914 21.6267C34.9541 21.7118 34.8556 21.8474 34.8172 22.0043C34.7787 22.1613 34.8033 22.327 34.8857 22.466L42.4555 35.064C42.5122 35.1579 42.5428 35.2652 42.5442 35.375C42.5456 35.4847 42.5177 35.5928 42.4634 35.6881C42.4092 35.7835 42.3304 35.8626 42.2354 35.9175C42.1404 35.9723 42.0324 36.0007 41.9227 36Z" fill="url(#paint3_linear_1_49)"/>
<path d="M41.9227 36H35.077C34.8993 36 34.7246 35.954 34.5699 35.8663C34.4152 35.7787 34.2859 35.6525 34.1946 35.5001L26.8223 23.2313L25.3824 20.847L25.3392 20.7792L23.9384 18.4484C23.8824 18.3548 23.8522 18.2481 23.8509 18.139C23.8496 18.03 23.8772 17.9225 23.9309 17.8276C23.9847 17.7327 24.0626 17.6537 24.1568 17.5987C24.2509 17.5437 24.358 17.5146 24.467 17.5145H28.8649C30.3942 17.5135 31.8615 16.9099 32.9489 15.8344C34.0362 14.7589 34.656 13.2982 34.6739 11.7689C34.7088 8.53917 31.973 5.89368 28.7415 5.89368H16.9899C16.8123 5.89393 16.6377 5.84821 16.4831 5.76097C16.3284 5.67374 16.199 5.54795 16.1074 5.39585L13.4333 0.933914C13.3773 0.840319 13.3471 0.733557 13.3458 0.624504C13.3445 0.515451 13.3721 0.408001 13.4259 0.313092C13.4796 0.218183 13.5575 0.139206 13.6517 0.0842032C13.7458 0.0292004 13.8529 0.000135467 13.962 -3.05176e-05H28.7106C35.1326 -3.05176e-05 40.4869 5.09962 40.5857 11.52C40.6192 13.5354 40.1308 15.5253 39.1681 17.2962C38.2054 19.0672 36.801 20.559 35.0914 21.6267C34.9541 21.7118 34.8556 21.8474 34.8172 22.0043C34.7787 22.1613 34.8033 22.327 34.8857 22.466L42.4555 35.064C42.5122 35.1579 42.5428 35.2652 42.5442 35.375C42.5456 35.4847 42.5177 35.5928 42.4634 35.6881C42.4092 35.7835 42.3304 35.8626 42.2354 35.9175C42.1404 35.9723 42.0324 36.0007 41.9227 36Z" fill="black"/>
<defs>
<linearGradient id="paint0_linear_1_49" x1="9.25632" y1="15.6145" x2="47.0176" y2="21.5285" gradientUnits="userSpaceOnUse">
<stop stop-color="#228BEB"/>
<stop offset="1" stop-color="#003362"/>
</linearGradient>
<linearGradient id="paint1_linear_1_49" x1="6.58794" y1="14.2563" x2="47.9781" y2="19.0052" gradientUnits="userSpaceOnUse">
<stop stop-color="#228BEB"/>
<stop offset="1" stop-color="#003362"/>
</linearGradient>
<linearGradient id="paint2_linear_1_49" x1="7.90961" y1="14.2971" x2="47.0323" y2="23.9497" gradientUnits="userSpaceOnUse">
<stop stop-color="#228BEB"/>
<stop offset="1" stop-color="#003362"/>
</linearGradient>
<linearGradient id="paint3_linear_1_49" x1="7.43653" y1="15.6151" x2="47.2451" y2="21.7566" gradientUnits="userSpaceOnUse">
<stop stop-color="#228BEB"/>
<stop offset="1" stop-color="#003362"/>
</linearGradient>
</defs>
</svg>
