<svg width="20" height="20" viewBox="0 0 20 20" fill="none" xmlns="http://www.w3.org/2000/svg">
<g clip-path="url(#clip0_5_303)">
<path d="M14.9149 12.4853L13.3126 13.388C13.1203 13.4962 12.8979 13.5386 12.6793 13.5085C12.4606 13.4785 12.2579 13.3778 12.1019 13.2217L6.75398 7.87378C6.59801 7.71773 6.49734 7.51495 6.46732 7.29637C6.4373 7.07778 6.47957 6.85538 6.58769 6.66305L7.49038 5.06075C7.65286 4.77237 7.71648 4.43873 7.67151 4.11079C7.62654 3.78286 7.47545 3.47866 7.24133 3.24466L4.8398 0.843129C4.69904 0.702304 4.53192 0.590591 4.34798 0.514373C4.16404 0.438155 3.96688 0.398926 3.76777 0.398926C3.56866 0.398926 3.3715 0.438155 3.18756 0.514373C3.00362 0.590591 2.8365 0.702304 2.69574 0.843129L1.60532 1.93278C0.967673 2.57042 0.561505 3.40293 0.451399 4.29794C0.341293 5.19295 0.533569 6.09908 0.997655 6.87225L1.54478 7.78413C4.33883 12.4408 8.28255 16.3014 12.9977 18.9956L13.1057 19.0577C14.7164 19.978 16.7065 19.7098 17.9961 18.4209L19.1348 17.2822C19.2756 17.1415 19.3874 16.9743 19.4636 16.7904C19.5398 16.6064 19.579 16.4093 19.579 16.2102C19.579 16.0111 19.5398 15.8139 19.4636 15.63C19.3874 15.446 19.2756 15.2789 19.1348 15.1381L16.7318 12.7351C16.4978 12.5007 16.1935 12.3493 15.8654 12.3042C15.5373 12.2591 15.2034 12.3227 14.9149 12.4853Z" fill="white"/>
</g>
<defs>
<clipPath id="clip0_5_303">
<rect width="20" height="20" fill="white"/>
</clipPath>
</defs>
</svg>
